<svg width="98" height="90" viewBox="0 0 98 90" fill="none" xmlns="http://www.w3.org/2000/svg">
<path d="M38.9922 62.9716C39.0099 63.0408 39.0337 63.1083 39.0632 63.1732C39.3802 63.6801 39.3191 64.187 39.0038 64.6518C38.718 65.0681 38.4037 65.4639 38.0634 65.8363C37.8042 66.1227 37.4911 66.018 37.3871 65.6418C37.3453 65.4911 37.3194 65.336 37.2864 65.1826C37.2562 65.0407 37.2259 64.8984 37.1951 64.7565L37.1203 64.7443C37.0773 64.9211 37.0333 65.0978 36.9915 65.2745C36.9579 65.4174 36.9365 65.5654 36.8919 65.7039C36.7912 66.0019 36.515 66.0917 36.2866 65.8856C35.7743 65.4152 35.3457 64.879 35.0947 64.2158C34.9847 63.9289 35.0177 63.6558 35.1415 63.3849C35.2009 63.2541 35.2565 63.1223 35.3374 62.9367C35.0942 62.9744 34.9088 63.0048 34.7222 63.032C34.227 63.1045 34.0201 62.971 33.9854 62.478C33.9474 61.9362 33.9579 61.391 33.9519 60.847C33.9519 60.7185 33.9717 60.5894 33.9772 60.4592C33.9964 60.0055 33.997 60.0016 33.5755 59.8166C31.8466 59.0582 30.0318 58.7773 28.1576 58.8482C27.6073 58.8693 27.0631 58.9335 26.5162 58.9801C26.1442 59.0117 26.0006 58.8909 26 58.5225C25.9974 56.953 26.1495 55.3871 26.454 53.8479C27.0466 50.8419 28.2605 48.0958 29.8596 45.5076C30.8077 43.9725 31.7915 42.4606 32.711 40.9067C33.3108 39.894 33.7791 38.8015 33.6861 37.5877C33.631 36.8947 33.45 36.2105 33.3042 35.5263C32.8205 33.255 32.3181 30.9919 31.8405 28.7217C31.1736 25.5584 30.5248 22.3923 29.8684 19.2274C29.6292 18.0728 29.3907 16.9185 29.153 15.7644C29.0567 15.3001 29.1277 15.1777 29.5828 15.0442C30.1451 14.878 30.1479 14.8132 30.0279 14.2237C29.9449 13.8154 29.8359 13.3207 29.9878 12.9756C30.3229 12.2144 30.1677 11.4527 30.1732 10.6976C30.1985 7.32708 30.1842 3.95716 30.1842 0.586676C30.1831 0.110798 30.2888 0.00276995 30.7653 0C30.9579 0 31.1505 0 31.3431 0C31.7728 0.00387794 31.8829 0.110798 31.8834 0.538479C31.8834 2.02539 31.8834 3.51212 31.8834 4.99866C31.8834 7.40852 31.8834 9.81838 31.89 12.2282C31.89 12.4077 32.0001 12.5845 32.032 12.7667C32.0788 13.0071 32.1068 13.2515 32.1349 13.4952C32.137 13.5878 32.1319 13.6804 32.1195 13.7722C32.2295 13.7595 32.3148 13.7506 32.4007 13.739C33.691 13.5595 34.9869 13.4243 36.2905 13.462C38.3677 13.5174 40.3894 13.8548 42.2883 14.7639C44.9945 16.0602 46.8874 18.1221 48.016 20.9132C48.1156 21.1602 48.2911 21.378 48.4793 21.6948C48.6713 21.4256 48.8557 21.2489 48.941 21.0328C49.5694 19.4379 50.4701 18.0285 51.6983 16.8413C53.1945 15.3965 54.9779 14.4774 56.9775 13.9606C58.9986 13.4393 61.0494 13.3667 63.1162 13.5562C63.6714 13.6071 64.2245 13.6791 64.8072 13.7451C64.8072 13.5617 64.7863 13.3955 64.8127 13.2382C64.8446 13.0542 64.9227 12.8781 64.9723 12.6964C65.0075 12.5678 65.0542 12.4354 65.0542 12.3047C65.059 8.39905 65.0605 4.49323 65.0586 0.58723C65.0586 0.124648 65.1505 0.0282535 65.599 0.0282535C65.8558 0.0282535 66.1126 0.0282535 66.3694 0.0282535C66.6153 0.0282535 66.7419 0.163427 66.7545 0.401643C66.765 0.567841 66.76 0.734038 66.76 0.900235C66.76 4.68621 66.7619 8.47181 66.7656 12.257C66.7656 12.4271 66.8602 12.5955 66.9048 12.7667C66.9416 12.9069 67.0005 13.0509 66.995 13.1916C66.9774 13.6498 66.94 14.1079 66.8987 14.565C66.8806 14.7716 66.9427 14.8747 67.154 14.94C67.9591 15.191 67.9618 15.201 67.7934 16.0198C67.1447 19.1902 66.5003 22.358 65.834 25.5207C65.0416 29.2779 64.2366 33.0326 63.4189 36.785C63.1437 38.0398 63.3969 39.2037 63.9867 40.2818C64.7065 41.5964 65.4972 42.8739 66.2978 44.1403C67.6559 46.2821 68.9215 48.4703 69.7469 50.8874C70.4202 52.8309 70.8232 54.8589 70.9442 56.9137C70.9734 57.42 70.9888 57.9275 70.9993 58.435C71.0103 58.9225 70.9024 59.0094 70.4099 58.9707C69.7348 58.9153 69.059 58.8316 68.3839 58.8371C66.6313 58.8516 64.9464 59.1928 63.3765 60.0144C63.2026 60.1052 63.1498 60.1961 63.1564 60.3955C63.1806 61.0603 63.1883 61.7251 63.1724 62.3855C63.1624 62.8148 63.0238 63.0165 62.7591 63.0453C62.5995 63.0624 62.4328 63.0209 62.2699 63.0032C62.1819 62.9932 62.0938 62.9777 61.9475 62.9555C61.9769 63.0529 62.0137 63.1479 62.0575 63.2397C62.3216 63.6724 62.3051 64.1167 62.0361 64.5189C61.7236 64.9829 61.3829 65.4269 61.0159 65.8485C60.7804 66.1205 60.4502 66.0086 60.3556 65.6518C60.3005 65.4485 60.2714 65.2374 60.2263 65.0308C60.2083 64.9234 60.1584 64.8241 60.0832 64.746C60.0342 64.9715 59.9863 65.197 59.9341 65.4219C59.9131 65.5398 59.8803 65.6552 59.8361 65.7665C59.7327 65.9936 59.4685 66.0778 59.2897 65.9138C58.729 65.4003 58.2305 64.8297 58.0373 64.0679C57.9894 63.879 58.0472 63.6541 58.0923 63.4536C58.127 63.2968 58.2162 63.1522 58.308 62.9394C58.0571 62.9782 57.8574 63.0104 57.6571 63.0397C57.2114 63.1045 57.0105 62.9982 56.9819 62.5489C56.9388 61.8319 56.9348 61.113 56.9698 60.3955C56.9841 60.0869 56.9478 59.9036 56.6589 59.7307C54.6962 58.5632 52.5016 57.8466 50.2319 57.6322C49.1159 57.5247 48.0006 57.466 46.8824 57.5768C44.5257 57.8095 42.3433 58.5469 40.3602 59.8653C40.188 59.9795 40.1742 60.1102 40.1819 60.2842C40.2061 60.8642 40.2215 61.4475 40.2397 62.0248C40.2415 62.0802 40.2401 62.1357 40.2353 62.191C40.1632 63.0286 40.002 63.1622 39.2542 62.9888C39.1673 62.9775 39.0798 62.9718 38.9922 62.9716ZM37.1175 61.1434C37.3789 60.8841 37.6188 60.5828 37.9181 60.3634C38.366 60.0354 38.8497 59.754 39.3301 59.477C39.4952 59.3801 39.7224 59.3789 39.8804 59.2737C41.6358 58.1055 43.6178 57.3264 45.695 56.9879C47.7309 56.6494 49.7669 56.701 51.793 57.0766C53.698 57.4341 55.5221 58.1389 57.1756 59.1562C57.3236 59.2465 57.4672 59.3607 57.629 59.4089C58.1756 59.572 58.6785 59.8572 59.1004 60.2432C59.4262 60.5362 59.7382 60.8448 60.0733 61.1628C60.1943 61.0209 60.3229 60.8857 60.4585 60.7578C60.864 60.4144 61.2591 60.0515 61.6982 59.7579C61.9535 59.5873 62.2848 59.5291 62.5852 59.4305C62.7195 59.3867 62.8752 59.395 62.9985 59.3335C64.1181 58.7751 65.3187 58.3989 66.5554 58.2189C67.6629 58.053 68.7867 58.028 69.9004 58.1447C70.2465 58.1818 70.2608 58.174 70.2344 57.8167C70.1755 57.0167 70.1177 56.2168 70.0297 55.4201C69.852 53.8185 69.442 52.2712 68.8956 50.7594C68.0702 48.4725 66.8459 46.3967 65.539 44.3647C64.6526 42.9886 63.7133 41.6418 63.0662 40.1233C62.577 38.9744 62.3987 37.8016 62.6936 36.5606C63.0238 35.1817 63.3061 33.7907 63.601 32.4057C64.3046 29.0899 65.0053 25.7739 65.703 22.4577C65.7767 22.1076 65.8329 21.7536 65.8967 21.4018C65.8209 21.4755 65.7642 21.5668 65.7316 21.6677C65.2606 22.8931 64.7147 24.077 63.9064 25.1229C62.8378 26.5079 61.4902 27.4857 59.7971 27.9228C58.4819 28.2624 57.1354 28.3278 55.7867 28.1699C54.114 27.9732 52.5875 27.3943 51.2779 26.3063C50.9346 26.0204 50.6176 25.7035 50.2775 25.3933C50.0261 25.6813 49.7928 25.9766 49.5292 26.2414C49.199 26.5738 48.9096 26.4874 48.7907 26.0342C48.717 25.7534 48.6642 25.467 48.6014 25.1828L48.5321 25.1783C48.4628 25.4869 48.4006 25.7977 48.3225 26.1046C48.2366 26.4431 47.929 26.5417 47.6726 26.3085C47.5193 26.163 47.375 26.0082 47.2407 25.8448C47.0937 25.6747 46.9573 25.4952 46.7586 25.2487C46.6802 25.3681 46.5951 25.4829 46.5039 25.5927C45.4309 26.7313 44.0592 27.5403 42.548 27.9256C41.1388 28.2962 39.7059 28.3311 38.267 28.1322C37.2408 27.9904 36.2701 27.684 35.3704 27.1539C33.7323 26.1877 32.645 24.7446 31.8455 23.0543C31.5951 22.5242 31.3838 21.9757 31.1543 21.4356C31.1347 21.4874 31.1316 21.5442 31.1455 21.5979C31.6094 23.8537 32.065 26.1107 32.5393 28.3643C33.0615 30.8418 33.6041 33.3153 34.1307 35.7928C34.255 36.3773 34.4014 36.9639 34.4476 37.5567C34.539 38.7245 34.1846 39.8125 33.6162 40.8047C32.7908 42.2451 31.9137 43.6473 31.03 45.0494C29.7908 47.0161 28.687 49.0503 27.9358 51.2641C27.2079 53.4091 26.8353 55.6179 26.7621 57.8804C26.7561 58.0721 26.777 58.1574 27.0087 58.1496C27.85 58.1214 28.693 58.0942 29.5338 58.117C30.791 58.1577 32.033 58.407 33.2095 58.8549C33.647 59.0183 34.0559 59.2803 34.5038 59.3867C34.9866 59.4951 35.4407 59.7065 35.8354 60.0066C36.2745 60.3479 36.6723 60.7445 37.1164 61.1423L37.1175 61.1434ZM46.7047 20.0683L46.7443 20.0096C46.7052 19.9282 46.6706 19.8434 46.6255 19.7664C45.4352 17.6873 43.73 16.1898 41.5394 15.2624C39.4016 14.3572 37.1533 14.1733 34.8603 14.2376C33.5947 14.2714 32.3572 14.6808 31.0795 14.4968C30.8753 14.468 30.8594 14.6043 30.8742 14.7605C30.9892 15.9333 31.0443 17.1161 31.2297 18.2778C31.5527 20.3015 32.1464 22.2444 33.2657 23.9878C34.337 25.6581 35.7716 26.8381 37.7404 27.2647C39.1607 27.5724 40.6301 27.569 42.0489 27.2547C43.7757 26.8802 45.1997 25.9982 46.3377 24.6437C46.3865 24.5698 46.4188 24.486 46.4323 24.3983C46.4835 24.1955 46.5182 23.9878 46.5748 23.7889C46.6223 23.6531 46.6774 23.5201 46.7399 23.3906C46.4494 23.4244 46.2067 23.4587 45.9629 23.4798C45.6482 23.5069 45.4859 23.3989 45.4347 23.0964C45.2828 22.2062 45.334 21.3126 45.4545 20.4262C45.5046 20.0606 45.8446 19.6922 46.3591 19.9437C46.4721 19.9913 46.5874 20.0329 46.7047 20.0683ZM50.441 23.4166C50.4338 23.4643 50.4228 23.4859 50.4294 23.4992C50.5945 23.8316 50.748 24.164 50.6737 24.5545C50.6605 24.6243 50.7332 24.7257 50.7904 24.7916C51.3175 25.3956 51.9341 25.914 52.6184 26.3284C53.7233 26.9987 54.9294 27.3478 56.206 27.443C57.5778 27.5455 58.937 27.4669 60.2411 26.9744C61.9953 26.3096 63.2125 25.0354 64.0841 23.42C65.5374 20.7231 66.0365 17.7859 66.1328 14.7567C66.1383 14.5672 66.0612 14.5151 65.8901 14.5262C65.5907 14.545 65.2848 14.6049 64.9926 14.5578C63.3765 14.2952 61.7571 14.1639 60.119 14.2553C58.6828 14.3351 57.2846 14.5877 55.9326 15.0863C53.5367 15.9754 51.6835 17.5166 50.3969 19.7398C50.3452 19.829 50.304 19.9248 50.2544 20.0246C50.3095 20.0406 50.3309 20.0534 50.3452 20.0489C50.4343 20.0286 50.5206 19.9976 50.6022 19.9564C51.0501 19.6717 51.5376 19.9708 51.5745 20.5531C51.6064 21.0516 51.6543 21.5464 51.6576 22.0433C51.6543 22.4023 51.6234 22.7605 51.5651 23.1147C51.5239 23.3956 51.366 23.497 51.0798 23.4748C50.8658 23.4626 50.6528 23.4377 50.441 23.4166ZM30.9342 12.4687C30.9292 12.5515 30.932 12.6346 30.9425 12.7169C30.9507 12.7584 31.0025 12.7911 31.0349 12.8277C31.0707 12.7922 31.1213 12.7634 31.1378 12.7207C31.1514 12.6664 31.1549 12.6101 31.1483 12.5545C31.1483 8.7272 31.1472 4.89968 31.145 1.07197C31.145 0.98001 31.0767 0.888047 31.0404 0.794977C31.0052 0.884723 30.9672 0.973916 30.9375 1.06532C30.9319 1.10204 30.9319 1.1394 30.9375 1.17612L30.9342 12.4687ZM65.8912 0.785559C65.7696 1.09413 65.7965 12.6537 65.9088 12.8072C66.0563 12.6066 66.0546 0.98832 65.8912 0.783343V0.785559ZM34.7332 62.2614C35.2285 62.1506 35.6813 62.052 36.1325 61.9434C36.2131 61.9247 36.2849 61.879 36.3361 61.8137C36.3752 61.7583 36.3989 61.627 36.3642 61.5921C35.9168 61.1046 35.4326 60.6631 34.7332 60.4221V62.2614ZM57.6962 62.2686C58.2877 62.068 58.9293 62.1356 59.4482 61.7018C58.9326 61.1478 58.4335 60.6637 57.6962 60.4182V62.2686ZM46.1478 20.8855V22.6726C47.2775 22.5369 47.6517 22.4139 47.8569 22.1037C47.3694 21.6056 46.8973 21.086 46.1478 20.8855ZM62.419 60.4005C61.7428 60.6476 61.2943 61.0786 60.8458 61.5085C60.7325 61.6193 60.7793 61.6924 60.8794 61.7772C61.3196 62.15 61.8814 62.1057 62.4201 62.2719L62.419 60.4005ZM37.7767 61.6276C38.2417 62.1578 38.8772 62.088 39.4407 62.2724V60.4066C38.7435 60.6692 38.2631 61.1235 37.7767 61.6276ZM50.8482 22.6654V20.8494C50.1482 21.1192 49.6623 21.573 49.2089 22.0616C49.4318 22.4688 50.2583 22.6028 50.8471 22.6654H50.8482ZM36.335 64.7394C36.4533 64.0247 36.5645 63.3544 36.6756 62.6896L36.6118 62.6492C36.5452 62.6974 36.4638 62.7345 36.4137 62.7965C36.2742 62.9659 36.1436 63.1425 36.0225 63.3256C35.6857 63.8436 35.7699 64.2928 36.335 64.7394ZM60.9317 64.715C61.4231 64.4247 61.5854 63.8469 61.3169 63.4303C61.1782 63.2148 61.0225 63.0092 60.8635 62.8076C60.8161 62.7478 60.733 62.7162 60.6665 62.6713L60.6015 62.7162C60.7077 63.3765 60.8167 64.0369 60.9289 64.715H60.9317ZM47.6511 25.1512L47.7529 25.1407C47.863 24.4688 47.9751 23.797 48.0892 23.1252L47.9945 23.0804C47.6434 23.3784 47.3513 23.7479 47.234 24.1928C47.1361 24.5728 47.4542 24.857 47.6511 25.1512ZM59.2985 64.7382L59.6441 62.6713L59.5225 62.6159C59.3508 62.8431 59.1681 63.0591 59.0102 63.2979C58.6481 63.8413 58.7163 64.2391 59.2985 64.7382ZM37.7608 62.6469L37.6281 62.7118C37.7382 63.3727 37.8538 64.0336 37.9732 64.7344C38.5262 64.2879 38.6115 63.8375 38.2758 63.3267C38.1201 63.089 37.9335 62.873 37.7608 62.6469ZM49.1198 23.1014L49.0362 23.1568C49.1501 23.8188 49.2634 24.4809 49.3812 25.1672C49.9127 24.7795 50.0244 24.2709 49.7113 23.79C49.5945 23.6137 49.4686 23.4436 49.3344 23.2804C49.2691 23.2135 49.1972 23.1536 49.1198 23.1014ZM30.149 16.8862L30.2591 16.8685C30.2244 16.5117 30.193 16.1544 30.149 15.7987C30.144 15.7583 30.0687 15.7261 30.0257 15.6879C29.9988 15.7306 29.9432 15.7777 29.9493 15.8142C30.0109 16.1765 30.0813 16.53 30.149 16.8862ZM66.7579 16.9915L66.8305 17.0075C66.9037 16.6352 66.9829 16.2641 67.044 15.8896C67.0533 15.8342 66.9763 15.766 66.9389 15.704C66.9037 15.7594 66.842 15.812 66.8371 15.8702C66.803 16.2447 66.7821 16.6197 66.7579 16.9915Z" fill="#323C34"/>
<path d="M4.59303 83.2431C7.61596 83.2431 9.12743 84.2585 9.12743 86.2892C9.12743 86.9785 8.95804 87.5938 8.61926 88.1354C8.29352 88.6769 7.83096 89.0954 7.23158 89.3908C6.63221 89.6862 5.94814 89.8338 5.17938 89.8338C4.82757 89.8338 4.41713 89.8154 3.94805 89.7785C3.75261 89.7662 3.51807 89.7538 3.24444 89.7415C2.97081 89.7292 2.67764 89.7231 2.36492 89.7231L1.03588 89.7415C0.801338 89.7538 0.469076 89.76 0.0390896 89.76C0.0130299 89.76 0 89.7231 0 89.6492C0 89.5754 0.0130299 89.5385 0.0390896 89.5385C0.534225 89.5385 0.899062 89.5077 1.1336 89.4462C1.36814 89.3846 1.5245 89.2677 1.60268 89.0954C1.69388 88.9108 1.73949 88.6338 1.73949 88.2646V79.7169C1.73949 79.3477 1.7004 79.0769 1.62222 78.9046C1.54404 78.7323 1.38768 78.6154 1.15314 78.5538C0.931636 78.48 0.573315 78.4431 0.0781793 78.4431C0.0390897 78.4431 0.0195449 78.4062 0.0195449 78.3323C0.0195449 78.2585 0.0390897 78.2215 0.0781793 78.2215H7.77884C7.85702 78.2215 7.90914 78.24 7.9352 78.2769C7.96126 78.3015 7.9808 78.3569 7.99383 78.4431L8.24791 80.8062C8.24791 80.8431 8.21534 80.8615 8.15019 80.8615C8.08504 80.8615 8.03943 80.8431 8.01338 80.8062C7.88308 80.1169 7.60945 79.5754 7.19249 79.1815C6.78857 78.7877 6.28692 78.5908 5.68754 78.5908H4.57349C4.11744 78.5908 3.77866 78.6277 3.55716 78.7015C3.34868 78.7631 3.20535 78.88 3.12717 79.0523C3.04899 79.2123 3.0099 79.4708 3.0099 79.8277V83.3354C3.62231 83.2738 4.15002 83.2431 4.59303 83.2431ZM4.78848 89.5015C5.83087 89.5015 6.5866 89.28 7.05568 88.8369C7.52475 88.3815 7.75929 87.6923 7.75929 86.7692C7.75929 85.6369 7.44658 84.8308 6.82114 84.3508C6.19571 83.8585 5.30316 83.6123 4.1435 83.6123C3.73958 83.6123 3.36171 83.6369 3.0099 83.6862V88.2646C3.0099 88.6954 3.12717 89.0092 3.36171 89.2062C3.59625 89.4031 4.07184 89.5015 4.78848 89.5015Z" fill="#323C34"/>
<path d="M13.8498 88.1908C13.8498 88.5846 13.9019 88.8738 14.0062 89.0585C14.1234 89.2308 14.3384 89.3538 14.6511 89.4277C14.9769 89.5015 15.485 89.5385 16.1756 89.5385C16.2147 89.5385 16.2343 89.5754 16.2343 89.6492C16.2343 89.7231 16.2147 89.76 16.1756 89.76C15.6414 89.76 15.2244 89.7538 14.9248 89.7415L13.2244 89.7231L11.9149 89.7415C11.6673 89.7538 11.335 89.76 10.9181 89.76C10.892 89.76 10.879 89.7231 10.879 89.6492C10.879 89.5754 10.892 89.5385 10.9181 89.5385C11.4132 89.5385 11.7715 89.5077 11.993 89.4462C12.2276 89.3846 12.3839 89.2677 12.4621 89.0954C12.5403 88.9108 12.5794 88.6338 12.5794 88.2646V79.7169C12.5794 79.3477 12.5403 79.0769 12.4621 78.9046C12.3839 78.7323 12.2276 78.6154 11.993 78.5538C11.7715 78.48 11.4132 78.4431 10.9181 78.4431C10.892 78.4431 10.879 78.4062 10.879 78.3323C10.879 78.2585 10.892 78.2215 10.9181 78.2215L11.8953 78.24C12.4426 78.2646 12.8791 78.2769 13.2048 78.2769C13.5306 78.2769 13.8954 78.2585 14.2993 78.2215C14.4557 78.2215 14.7033 78.2154 15.042 78.2031C15.3808 78.1785 15.674 78.1662 15.9215 78.1662C17.1203 78.1662 18.078 78.4185 18.7946 78.9231C19.5243 79.4277 19.8891 80.1969 19.8891 81.2308C19.8891 82.0431 19.6741 82.7262 19.2442 83.28C18.8272 83.8338 18.2865 84.2462 17.6219 84.5169C16.9704 84.7877 16.2929 84.9231 15.5893 84.9231C15.1984 84.9231 14.8792 84.8923 14.6316 84.8308C14.5925 84.8308 14.573 84.8 14.573 84.7385C14.573 84.7015 14.5795 84.6646 14.5925 84.6277C14.6186 84.5908 14.6446 84.5785 14.6707 84.5908C14.8792 84.64 15.1137 84.6646 15.3743 84.6646C16.2343 84.6646 16.9574 84.4 17.5438 83.8708C18.1431 83.3415 18.4428 82.5785 18.4428 81.5815C18.4428 80.6092 18.1627 79.8462 17.6024 79.2923C17.0421 78.7262 16.3255 78.4431 15.4525 78.4431C14.9834 78.4431 14.6446 78.4677 14.4361 78.5169C14.2277 78.5662 14.0778 78.6831 13.9866 78.8677C13.8954 79.04 13.8498 79.3354 13.8498 79.7538V88.1908Z" fill="#323C34"/>
<path d="M33.4933 89.5385C33.5454 89.5385 33.5714 89.5754 33.5714 89.6492C33.5714 89.7231 33.5454 89.76 33.4933 89.76C33.2457 89.76 32.8613 89.7477 32.3401 89.7231C31.8189 89.6985 31.441 89.6862 31.2065 89.6862C30.9198 89.6862 30.555 89.6985 30.112 89.7231C29.695 89.7477 29.3758 89.76 29.1543 89.76C29.1022 89.76 29.0761 89.7231 29.0761 89.6492C29.0761 89.5754 29.1022 89.5385 29.1543 89.5385C29.6364 89.5385 29.9882 89.4954 30.2097 89.4092C30.4312 89.3231 30.542 89.1754 30.542 88.9662C30.542 88.7938 30.4573 88.5292 30.2879 88.1723L28.5484 84.6831H23.8967L22.6654 87.4154C22.483 87.8338 22.3918 88.1723 22.3918 88.4308C22.3918 88.8123 22.5482 89.0954 22.8609 89.28C23.1866 89.4523 23.6687 89.5385 24.3072 89.5385C24.3723 89.5385 24.4049 89.5754 24.4049 89.6492C24.4049 89.7231 24.3723 89.76 24.3072 89.76C24.0726 89.76 23.7339 89.7477 23.2909 89.7231C22.7957 89.6985 22.3657 89.6862 22.0009 89.6862C21.6621 89.6862 21.2712 89.6985 20.8282 89.7231C20.4373 89.7477 20.1116 89.76 19.851 89.76C19.7858 89.76 19.7532 89.7231 19.7532 89.6492C19.7532 89.5754 19.7858 89.5385 19.851 89.5385C20.2158 89.5385 20.522 89.4769 20.7696 89.3538C21.0302 89.2185 21.2712 88.9908 21.4927 88.6708C21.7273 88.3385 21.9814 87.8646 22.255 87.2492L26.3789 78.0554C26.405 78.0185 26.4506 78 26.5158 78C26.5809 78 26.62 78.0185 26.633 78.0554L31.2456 87.2308C31.6886 88.1415 32.0665 88.7569 32.3792 89.0769C32.6919 89.3846 33.0633 89.5385 33.4933 89.5385ZM24.0531 84.3138H28.3725L26.0858 79.7538L24.0531 84.3138Z" fill="#323C34"/>
<path d="M47.2166 89.5385C47.2687 89.5385 47.2948 89.5754 47.2948 89.6492C47.2948 89.7231 47.2687 89.76 47.2166 89.76C46.969 89.76 46.5847 89.7477 46.0635 89.7231C45.5423 89.6985 45.1644 89.6862 44.9299 89.6862C44.6432 89.6862 44.2784 89.6985 43.8354 89.7231C43.4184 89.7477 43.0992 89.76 42.8777 89.76C42.8255 89.76 42.7995 89.7231 42.7995 89.6492C42.7995 89.5754 42.8255 89.5385 42.8777 89.5385C43.3598 89.5385 43.7116 89.4954 43.9331 89.4092C44.1546 89.3231 44.2653 89.1754 44.2653 88.9662C44.2653 88.7938 44.1807 88.5292 44.0113 88.1723L39.8091 79.7538L36.3888 87.4154C36.2064 87.8338 36.1152 88.1723 36.1152 88.4308C36.1152 88.8123 36.2715 89.0954 36.5842 89.28C36.91 89.4523 37.3921 89.5385 38.0305 89.5385C38.0957 89.5385 38.1283 89.5754 38.1283 89.6492C38.1283 89.7231 38.0957 89.76 38.0305 89.76C37.796 89.76 37.4572 89.7477 37.0142 89.7231C36.5191 89.6985 36.0891 89.6862 35.7243 89.6862C35.3855 89.6862 34.9946 89.6985 34.5516 89.7231C34.1607 89.7477 33.8349 89.76 33.5743 89.76C33.5092 89.76 33.4766 89.7231 33.4766 89.6492C33.4766 89.5754 33.5092 89.5385 33.5743 89.5385C33.9392 89.5385 34.2454 89.4769 34.4929 89.3538C34.7535 89.2185 34.9946 88.9908 35.2161 88.6708C35.4506 88.3385 35.7047 87.8646 35.9783 87.2492L40.1023 78.0554C40.1284 78.0185 40.174 78 40.2391 78C40.3043 78 40.3434 78.0185 40.3564 78.0554L44.969 87.2308C45.412 88.1415 45.7898 88.7569 46.1026 89.0769C46.4153 89.3846 46.7866 89.5385 47.2166 89.5385Z" fill="#323C34"/>
<path d="M54.2025 89.9815C52.9907 89.9815 51.9093 89.7169 50.9581 89.1877C50.0199 88.6462 49.2903 87.92 48.7691 87.0092C48.2609 86.0862 48.0068 85.0831 48.0068 84C48.0068 82.7323 48.3456 81.6492 49.0231 80.7508C49.7007 79.84 50.5672 79.1569 51.6226 78.7015C52.691 78.2462 53.779 78.0185 54.8866 78.0185C56.1244 78.0185 57.2124 78.2954 58.1506 78.8492C59.0887 79.3908 59.8054 80.1108 60.3005 81.0092C60.8087 81.9077 61.0627 82.8615 61.0627 83.8708C61.0627 84.9908 60.75 86.0185 60.1246 86.9538C59.4992 87.8892 58.6587 88.6277 57.6033 89.1692C56.5609 89.7108 55.4273 89.9815 54.2025 89.9815ZM54.8866 89.5938C55.7726 89.5938 56.5674 89.3908 57.271 88.9846C57.9877 88.5785 58.548 87.9815 58.9519 87.1938C59.3689 86.4062 59.5773 85.4708 59.5773 84.3877C59.5773 83.2308 59.3493 82.2031 58.8933 81.3046C58.4372 80.4062 57.7922 79.7046 56.9583 79.2C56.1374 78.6954 55.1732 78.4431 54.0657 78.4431C52.6324 78.4431 51.5118 78.88 50.704 79.7538C49.8961 80.6277 49.4922 81.8277 49.4922 83.3538C49.4922 84.5108 49.7202 85.5692 50.1763 86.5292C50.6323 87.4769 51.2708 88.2277 52.0917 88.7815C52.9126 89.3231 53.8442 89.5938 54.8866 89.5938Z" fill="#323C34"/>
<path d="M62.834 89.76C62.8079 89.76 62.7949 89.7231 62.7949 89.6492C62.7949 89.5754 62.8079 89.5385 62.834 89.5385C63.3291 89.5385 63.694 89.5077 63.9285 89.4462C64.163 89.3846 64.3194 89.2677 64.3976 89.0954C64.4888 88.9108 64.5344 88.6338 64.5344 88.2646V79.7169C64.5344 79.3477 64.4888 79.0769 64.3976 78.9046C64.3194 78.7323 64.163 78.6154 63.9285 78.5538C63.707 78.48 63.3487 78.4431 62.8535 78.4431C62.8275 78.4431 62.8144 78.4062 62.8144 78.3323C62.8144 78.2585 62.8275 78.2215 62.8535 78.2215H71.121C71.2513 78.2215 71.3164 78.2769 71.3164 78.3877L71.3555 80.8062C71.3555 80.8431 71.3164 80.8615 71.2383 80.8615C71.1601 80.8615 71.121 80.8431 71.121 80.8062C71.0689 80.1169 70.8474 79.5815 70.4565 79.2C70.0656 78.8062 69.5574 78.6092 68.932 78.6092H67.3879C66.9449 78.6092 66.6127 78.64 66.3911 78.7015C66.1696 78.7631 66.0133 78.8738 65.9221 79.0338C65.8439 79.1938 65.8048 79.4277 65.8048 79.7354V88.1908C65.8048 88.5846 65.8569 88.8738 65.9612 89.0585C66.0784 89.2308 66.2999 89.3538 66.6257 89.4277C66.9514 89.5015 67.4661 89.5385 68.1697 89.5385C68.2088 89.5385 68.2284 89.5754 68.2284 89.6492C68.2284 89.7231 68.2088 89.76 68.1697 89.76C67.6355 89.76 67.2185 89.7538 66.9189 89.7415L65.1598 89.7231L63.8308 89.7415C63.5962 89.7538 63.264 89.76 62.834 89.76Z" fill="#323C34"/>
<path d="M86.3405 89.5385C86.3795 89.5385 86.3991 89.5754 86.3991 89.6492C86.3991 89.7231 86.3795 89.76 86.3405 89.76C85.9365 89.76 85.6108 89.7538 85.3632 89.7415L84.0146 89.7231L82.5878 89.7415C82.3533 89.7538 82.0471 89.76 81.6692 89.76C81.6302 89.76 81.6106 89.7231 81.6106 89.6492C81.6106 89.5754 81.6302 89.5385 81.6692 89.5385C82.1774 89.5385 82.5488 89.5077 82.7833 89.4462C83.0178 89.3846 83.1742 89.2677 83.2524 89.0954C83.3305 88.9231 83.3696 88.6462 83.3696 88.2646V79.7538L74.9654 89.9262C74.9263 89.9754 74.8481 90 74.7308 90C74.5354 90 74.4377 89.9569 74.4377 89.8708V79.7169C74.4377 79.3477 74.3921 79.0769 74.3008 78.9046C74.2227 78.7323 74.0598 78.6154 73.8122 78.5538C73.5777 78.48 73.2129 78.4431 72.7177 78.4431C72.6917 78.4431 72.6786 78.4062 72.6786 78.3323C72.6786 78.2585 72.6917 78.2215 72.7177 78.2215L73.734 78.24C74.2813 78.2646 74.7243 78.2769 75.0631 78.2769C75.441 78.2769 75.9165 78.2646 76.4899 78.24L77.4085 78.2215C77.4476 78.2215 77.4671 78.2585 77.4671 78.3323C77.4671 78.4062 77.4476 78.4431 77.4085 78.4431C76.9003 78.4431 76.529 78.48 76.2944 78.5538C76.0599 78.6154 75.9035 78.7323 75.8253 78.9046C75.7472 79.0769 75.7081 79.3477 75.7081 79.7169V88.3385L84.1319 78.1292C84.171 78.0923 84.2426 78.0738 84.3469 78.0738C84.5423 78.0738 84.6401 78.1169 84.6401 78.2031V88.2646C84.6401 88.6338 84.6791 88.9108 84.7573 89.0954C84.8485 89.2677 85.0114 89.3846 85.2459 89.4462C85.4805 89.5077 85.8453 89.5385 86.3405 89.5385Z" fill="#323C34"/>
<path d="M97.9609 89.5385C97.987 89.5385 98 89.5754 98 89.6492C98 89.7231 97.987 89.76 97.9609 89.76C97.544 89.76 97.2182 89.7538 96.9837 89.7415L95.6351 89.7231L94.2669 89.7415C94.0324 89.7538 93.7132 89.76 93.3093 89.76C93.2832 89.76 93.2702 89.7231 93.2702 89.6492C93.2702 89.5754 93.2832 89.5385 93.3093 89.5385C93.8044 89.5385 94.1692 89.5077 94.4038 89.4462C94.6383 89.3846 94.7947 89.2677 94.8728 89.0954C94.951 88.9108 94.9901 88.6338 94.9901 88.2646V83.7785C94.5601 83.8031 94.1888 83.8954 93.876 84.0554C93.5633 84.2031 93.2311 84.48 92.8793 84.8862C92.5275 85.28 92.1105 85.8708 91.6284 86.6585C90.9899 87.6923 90.5013 88.4308 90.1625 88.8738C89.8368 89.3169 89.6023 89.5754 89.4589 89.6492C89.3286 89.7231 89.1527 89.76 88.9312 89.76H86.9181C86.879 89.76 86.8595 89.7231 86.8595 89.6492C86.8595 89.5754 86.879 89.5385 86.9181 89.5385C87.5956 89.5262 88.182 89.28 88.6771 88.8C89.1723 88.3077 89.7716 87.4708 90.4753 86.2892C90.9704 85.4769 91.4264 84.8862 91.8434 84.5169C92.2603 84.1477 92.7425 83.9015 93.2897 83.7785C92.1561 83.68 91.2896 83.3908 90.6902 82.9108C90.1039 82.4185 89.8107 81.7846 89.8107 81.0092C89.8107 80.4554 89.9606 79.9631 90.2603 79.5323C90.573 79.1015 90.9964 78.7692 91.5307 78.5354C92.0779 78.2892 92.6903 78.1662 93.3679 78.1662C93.6676 78.1662 94.0129 78.1846 94.4038 78.2215C94.5601 78.2338 94.7425 78.2462 94.951 78.2585C95.1595 78.2708 95.3875 78.2769 95.6351 78.2769C95.9739 78.2769 96.4169 78.2646 96.9641 78.24L97.9609 78.2215C97.987 78.2215 98 78.2585 98 78.3323C98 78.4062 97.987 78.4431 97.9609 78.4431C97.4528 78.4431 97.0814 78.48 96.8469 78.5538C96.6123 78.6154 96.456 78.7323 96.3778 78.9046C96.2996 79.0769 96.2605 79.3477 96.2605 79.7169V88.2646C96.2605 88.6338 96.2996 88.9108 96.3778 89.0954C96.469 89.2677 96.6254 89.3846 96.8469 89.4462C97.0814 89.5077 97.4528 89.5385 97.9609 89.5385ZM91.1398 80.5477C91.1398 81.4462 91.4069 82.1662 91.9411 82.7077C92.4753 83.2492 93.2506 83.52 94.2669 83.52C94.4363 83.52 94.6774 83.5077 94.9901 83.4831V79.7538C94.9901 79.2615 94.8337 78.9169 94.521 78.72C94.2083 78.5108 93.8174 78.4062 93.3483 78.4062C91.876 78.4062 91.1398 79.12 91.1398 80.5477Z" fill="#323C34"/>
</svg>
